<svg width="322" height="309" viewBox="0 0 322 309" fill="none" xmlns="http://www.w3.org/2000/svg">
<path d="M65.2915 184.177C42.6297 214.09 15.3095 219.302 4.48218 218.169C12.6405 225.421 9.89585 273.313 7.50376 296.353C99.2843 283.889 112.504 246.497 104.572 246.874M65.2915 184.177C66.59 186.789 68.0744 189.725 69.6905 192.864M65.2915 184.177L69.6905 192.864M104.572 246.874C99.0153 247.139 81.0802 214.981 69.6905 192.864M104.572 246.874C111.522 242.04 129.122 208.853 137.054 192.864C140.216 195.371 145.308 193.758 151.029 190.051M69.6905 192.864C89.2494 175.615 121.04 129.033 91.7304 80.6874C88.9606 76.4068 84.6297 67.3169 89.4642 65.2017C95.5074 62.5579 101.551 65.2018 117.792 107.126C110.112 90.1299 96.2628 56.1372 102.306 56.1372C109.86 56.1372 109.482 55.0041 130.633 98.8171C123.835 84.5905 112.277 56.1372 120.435 56.1372C130.633 56.1372 140.076 94.6626 140.831 97.6842C141.586 100.706 127.989 47.8281 137.054 50.472C143.85 52.4541 154.68 68.0235 159.993 105.616M159.993 105.616C161.767 118.165 162.926 133.168 163.115 150.94C166.263 151.317 173.615 148.522 177.845 134.321C182.076 120.119 187.666 122.109 189.932 124.878C190.813 133.691 190.083 153.432 180.112 161.893C173.271 170.342 161.164 183.483 151.029 190.051M159.993 105.616C170.476 88.7453 192.425 56.515 196.353 62.5582C201.263 70.1122 196.73 70.1122 182 95.7956C189.428 82.7021 205.871 57.7237 212.216 62.5582C215.451 65.0228 212.214 71.7801 206.928 79.1473M206.928 79.1473C201.846 86.2316 194.869 93.8797 189.932 98.8171L206.928 79.1473ZM206.928 79.1473C211.083 73.9953 219.921 64.4467 222.036 67.4683C224.68 71.2453 219.77 81.4431 202.396 105.616C211.083 92.5222 229.666 67.4683 234.5 72.0007C240.543 77.6661 192.576 135.454 202.396 146.785C212.468 138.853 232.989 124.123 234.5 128.655C236.389 134.321 211.461 158.116 209.194 161.893C206.928 165.67 201.64 195.508 248.853 199.663M248.853 199.663H319.482L318.185 210.993M248.853 199.663V208.727M248.853 256.695C218.007 250.287 155.259 227.988 151.029 190.051M248.853 256.695L312.306 262.36L313.581 251.218M248.853 256.695V245.931M248.853 208.727L318.185 210.993M248.853 208.727V221.947M318.185 210.993L316.499 225.724M316.499 225.724L248.853 221.947M316.499 225.724L314.857 240.076M248.853 221.947V235.166M248.853 235.166L314.857 240.076M248.853 235.166V245.931M314.857 240.076L313.581 251.218M313.581 251.218L248.853 245.931" stroke="#1B1B1B" stroke-width="3"/>
<path d="M240.547 102.972L267.741 72.0005M249.611 111.659L276.05 97.3062" stroke="#4A44FF" stroke-width="3"/>
<path d="M65.6688 60.2922L38.4746 45.562M65.6688 75.4001L24.1221 71.6232M137.431 249.897C137.431 249.897 135.59 269.463 134.41 282.001M150.273 245.364L160.471 288.422" stroke="#4A44FF" stroke-width="3"/>
<path d="M15.811 145.044C25.7823 141.709 30.0125 134.735 32.7319 124.122C35.7535 133.825 41.4945 142.012 49.0484 145.044C41.7966 147.773 36.9621 157.173 32.7319 167.18C29.4082 158.386 23.0628 148.683 15.811 145.044Z" stroke="#4A44FF" stroke-width="3"/>
<path d="M198.624 287.964C206.103 285.447 209.275 280.186 211.315 272.18C213.581 279.5 217.887 285.676 223.552 287.964C218.113 290.022 214.488 297.114 211.315 304.662C208.822 298.029 204.063 290.709 198.624 287.964Z" stroke="#1B1B1B" stroke-width="3"/>
<path d="M258.291 147.981C269.622 144.177 274.429 136.224 277.52 124.122C280.953 135.187 287.477 144.523 296.061 147.981C287.82 151.093 282.327 161.812 277.52 173.223C273.743 163.195 266.532 152.13 258.291 147.981Z" stroke="#4A44FF" stroke-width="3"/>
<path d="M211.46 21.3089C218.939 18.7927 222.111 13.5315 224.151 5.52539C226.417 12.8453 230.723 19.0214 236.388 21.3089C230.949 23.3676 227.324 30.4588 224.151 38.0074C221.658 31.3738 216.899 24.0539 211.46 21.3089Z" stroke="#1B1B1B" stroke-width="3"/>
</svg>
